# Exported from Wings 3D 1.5.3
mtllib hull.mtl
o Cube1
#54 vertices, 52 faces
v -1.00000000 -2.9363176e-2 -1.00000000
v -1.00000000 0.41600000 -1.00000000
v 1.00000000 -2.9363176e-2 -1.00000000
v 1.00000000 0.41600000 -1.00000000
v -2.83968371 -0.48126756 -0.19713912
v -2.83968371 -0.48126756 1.23827881
v -2.83968371 -0.25662756 1.23827881
v -2.83968371 -0.25662756 -0.19713912
v 2.83968371 -0.48126756 1.23827881
v 2.83968371 -0.48126756 -0.19713912
v 2.83968371 -0.25662756 -0.19713912
v 2.83968371 -0.25662756 1.23827881
v -0.55600000 6.9507449e-2 -2.71029936
v -0.55600000 0.31712937 -2.71029936
v 0.55600000 0.31712937 -2.71029936
v 0.55600000 6.9507449e-2 -2.71029936
v -1.00000000 -2.9363176e-2 1.98379143
v -1.05569261 -4.3043645e-2 2.04113968
v -1.05386109 0.39630724 2.04113968
v -1.00000000 0.41600000 1.98379143
v 1.00000000 -2.9363176e-2 1.98379143
v 1.05569261 -4.3043645e-2 2.04113968
v 1.05386109 0.39630724 2.04113968
v 1.00000000 0.41600000 1.98379143
v 0.0000000e+0 -2.9363176e-2 1.98379143
v 0.0000000e+0 0.41600000 1.98379143
v 5.7348255e-2 0.35865175 1.92025079
v 5.7348255e-2 2.7985079e-2 1.92025079
v 0.94265175 2.7985079e-2 1.92025079
v 0.94265175 0.35865175 1.92025079
v -5.7348255e-2 2.7985079e-2 1.92025079
v -5.7348255e-2 0.35865175 1.92025079
v -0.94265175 0.35865175 1.92025079
v -0.94265175 2.7985079e-2 1.92025079
v 7.6832093e-3 0.35865175 2.04113968
v 2.8674127e-2 0.38732587 2.01246555
v 7.6832093e-3 2.7985079e-2 2.04113968
v 2.8674127e-2 -6.8904890e-4 2.01246555
v 0.97132587 -6.8904890e-4 2.01246555
v 0.98470427 1.5615641e-3 2.04113968
v 0.98969329 0.37458001 2.04113968
v 0.97132587 0.38732587 2.01246555
v -7.6832093e-3 2.7985079e-2 2.04113968
v -2.8674127e-2 -6.8904890e-4 2.01246555
v -7.6832093e-3 0.35865175 2.04113968
v -2.8674127e-2 0.38732587 2.01246555
v -0.97132587 0.38732587 2.01246555
v -0.98969329 0.37458001 2.04113968
v -0.98470427 1.5615641e-3 2.04113968
v -0.97132587 -6.8904890e-4 2.01246555
v -0.24908800 0.13785110 -3.18215856
v -0.24908800 0.24878572 -3.18215856
v 0.24908800 0.24878572 -3.18215856
v 0.24908800 0.13785110 -3.18215856
vt 0.0000000e+0 0.21220962
vt 0.0000000e+0 0.71240520
vt 1.3363954e-3 0.57588388
vt 1.4180420e-3 7.5697182e-2
vt 0.17680027 0.50127584
vt 0.17940797 0.79054568
vt 0.18222667 0.50675167
vt 0.18305017 1.2301063e-3
vt 0.18390790 0.50050776
vt 0.18504687 0.50297174
vt 0.18548894 0.29050610
vt 0.18844817 6.7406672e-3
vt 0.18935827 0.0000000e+0
vt 0.19121639 2.9132405e-3
vt 0.22001299 0.95389492
vt 0.22601514 0.45387126
vt 0.24875014 0.99952918
vt 0.25473021 0.49951806
vt 0.27463859 0.50385030
vt 0.27668142 0.50001138
vt 0.27733488 0.50772474
vt 0.27814524 0.50002368
vt 0.28010827 0.50389117
vt 0.28086135 3.8495877e-3
vt 0.28290006 1.2941855e-5
vt 0.28355006 7.7326108e-3
vt 0.28436208 2.7590093e-5
vt 0.28631926 3.9027675e-3
vt 0.29612818 1.00000000
vt 0.30210789 0.50001138
vt 0.32576844 0.95494630
vt 0.33176911 0.45497305
vt 0.36961625 0.79243724
vt 0.36970973 0.50480614
vt 0.37082728 0.50254154
vt 0.37244344 0.50864770
vt 0.37569366 0.29248851
vt 0.37596484 4.8399499e-3
vt 0.37787534 1.9686919e-3
vt 0.37797282 0.50327400
vt 0.37865233 8.7238464e-3
vt 0.38416351 3.3269259e-3
vt 0.55054306 0.71788138
vt 0.55188721 0.50001138
vt 0.55188721 0.53146017
vt 0.55188721 0.58137868
vt 0.55334866 0.53146017
vt 0.55334866 0.50001138
vt 0.56277454 0.21807807
vt 0.56419423 4.2356778e-2
vt 0.56419423 6.7756325e-2
vt 0.56419423 8.1571192e-2
vt 0.56419423 0.16087302
vt 0.56419423 0.18445091
vt 0.56419423 0.29663400
vt 0.56419423 0.33899126
vt 0.56419423 0.36035615
vt 0.56419423 0.42432789
vt 0.56419423 0.44569278
vt 0.56419423 0.46705767
vt 0.56419423 0.46705767
vt 0.56419423 0.48542668
vt 0.56419423 0.49461119
vt 0.56419423 0.50379569
vt 0.56419423 0.53524448
vt 0.56419423 0.56669327
vt 0.56419423 0.33899126
vt 0.56419423 0.47624217
vt 0.56424442 5.7205760e-2
vt 0.56439573 0.0000000e+0
vt 0.56466798 0.12539626
vt 0.56501462 0.16310179
vt 0.56692135 0.50379569
vt 0.56692135 0.47624217
vt 0.56692135 0.49461119
vt 0.56692135 0.48542668
vt 0.57023965 0.16310179
vt 0.57153044 0.12133593
vt 0.61769769 7.4510899e-2
vt 0.61780972 5.0960531e-2
vt 0.64839299 0.50379569
vt 0.64839299 0.53524448
vt 0.64839299 0.56669327
vt 0.65112011 0.47624217
vt 0.65112011 0.50379569
vt 0.65112011 0.48542668
vt 0.65112011 0.49461119
vt 0.65384722 0.48542668
vt 0.65384722 0.49461119
vt 0.65384722 0.47624217
vt 0.65384722 0.46705767
vt 0.70071285 0.42432789
vt 0.70071285 0.44569278
vt 0.70071285 0.46705767
vt 0.70071285 0.42432789
vt 0.70071285 0.43487858
vt 0.73229075 3.3753025e-2
vt 0.73240278 1.0202657e-2
vt 0.74789187 0.25365463
vt 0.74809299 0.42432789
vt 0.74809299 0.43487858
vt 0.74933767 0.21189385
vt 0.75407021 0.25182635
vt 0.75509748 0.38197063
vt 0.75509748 0.42432789
vt 0.75509748 0.25365463
vt 0.75509748 0.27501952
vt 0.75591964 0.21639467
vt 0.75807313 0.10607060
vt 0.75865193 0.19472902
vt 0.75865193 0.23023377
vt 0.75865193 8.4713556e-2
vt 0.75865193 8.7558504e-2
vt 0.75865193 0.11900729
vt 0.75865193 0.15607005
vt 0.75879705 0.15925216
vt 0.75884093 0.19878812
vt 0.75930814 0.12462810
vt 0.76180171 0.15898284
vt 0.76184244 0.19606206
vt 0.76187303 0.15898284
vt 0.76264798 0.12185224
vt 0.76778041 0.23314031
vt 0.76780062 8.4713556e-2
vt 0.76780062 0.12185224
vt 0.76802493 0.19606206
vt 0.77097008 0.16176114
vt 0.77097845 0.23182545
vt 0.77098735 0.19320747
vt 0.77102800 0.19634847
vt 0.77107910 0.15632941
vt 0.77108180 8.7558504e-2
vt 0.77108180 0.11900729
vt 0.77173532 0.12488747
vt 0.78570474 8.4713556e-2
vt 0.78585605 2.7507796e-2
vt 0.78590624 4.2356778e-2
vt 0.78590624 1.6957231e-2
vn -0.33165906 -0.87205194 -0.35989954
vn -0.47354425 0.81286704 -0.33912095
vn 0.33165906 -0.87205194 -0.35989954
vn 0.47354425 0.81286704 -0.33912095
vn -0.65626694 -0.54873718 -0.51788146
vn -0.66075600 -0.54689163 0.51411191
vn -0.80122064 0.42956321 0.41655844
vn -0.79895190 0.43041337 -0.42002404
vn 0.66075600 -0.54689163 0.51411191
vn 0.65626694 -0.54873718 -0.51788146
vn 0.79895190 0.43041337 -0.42002404
vn 0.80122064 0.42956321 0.41655844
vn -0.63037925 -0.69383341 -0.34816261
vn -0.63037925 0.69383341 -0.34816261
vn 0.63037925 0.69383341 -0.34816261
vn 0.63037925 -0.69383341 -0.34816261
vn 0.20139403 -0.94101205 0.27191315
vn 0.11742251 -0.62208873 0.77409145
vn -0.15862328 0.57348303 0.80371380
vn -1.9536262e-2 0.94102349 0.33777674
vn -0.20139403 -0.94101205 0.27191315
vn -0.11742251 -0.62208873 0.77409145
vn 0.15862328 0.57348303 0.80371380
vn 1.9536262e-2 0.94102349 0.33777674
vn 0.0000000e+0 -0.82707155 0.56209665
vn 0.0000000e+0 0.82707155 0.56209665
vn 0.60437047 -0.41357138 0.68095157
vn 0.60437047 0.41357138 0.68095157
vn -0.59930921 0.43489630 0.67208160
vn -0.59492085 -0.43903179 0.67329063
vn -0.60437047 0.41357138 0.68095157
vn -0.60437047 -0.41357138 0.68095157
vn 0.59492085 -0.43903179 0.67329063
vn 0.59930921 0.43489630 0.67208160
vn 0.58871613 0.13722821 0.79660639
vn 0.39170504 7.7087952e-2 0.91685583
vn 0.58871613 -0.13722821 0.79660639
vn 0.39170504 -7.7087952e-2 0.91685583
vn -0.62868763 -9.9163541e-2 0.77130957
vn -0.74394954 -0.14738939 0.65177868
vn -0.66716037 0.14237539 0.73118143
vn -0.50335938 8.3048622e-2 0.86007689
vn -0.58871613 -0.13722821 0.79660639
vn -0.39170504 -7.7087952e-2 0.91685583
vn -0.58871613 0.13722821 0.79660639
vn -0.39170504 7.7087952e-2 0.91685583
vn 0.50335938 8.3048622e-2 0.86007689
vn 0.66716037 0.14237539 0.73118143
vn 0.74394954 -0.14738939 0.65177868
vn 0.62868763 -9.9163541e-2 0.77130957
vn -0.39370610 -0.46481017 -0.79306180
vn -0.39370610 0.46481017 -0.79306180
vn 0.39370610 0.46481017 -0.79306180
vn 0.39370610 -0.46481017 -0.79306180
g Cube1_Cube1_auv
usemtl Cube1_auv
s 1
f 1/33/1 3/6/3 21/7/21 25/21/25 17/36/17
f 1/55/1 5/106/5 8/107/8 2/67/2
f 1/33/1 13/31/13 16/15/16 3/6/3
f 2/11/2 8/1/8 7/4/7 19/8/19 20/12/20
f 2/135/2 14/79/14 13/80/13 1/137/1
f 3/6/3 10/2/10 9/3/9 22/5/22 21/7/21
f 3/70/3 16/98/16 15/97/15 4/50/4
f 4/105/4 11/57/11 10/56/10 3/104/3
f 4/37/4 15/32/15 14/16/14 2/11/2
f 6/93/6 7/94/7 8/60/8 5/59/5
f 6/72/6 18/102/18 19/99/19 7/54/7
f 10/92/10 11/93/11 12/59/12 9/58/9
f 12/109/12 23/77/23 22/78/22 9/112/9
f 13/31/13 51/29/51 54/17/54 16/15/16
f 14/79/14 52/51/52 51/69/51 13/80/13
f 15/32/15 53/30/53 52/18/52 14/16/14
f 16/98/16 54/138/54 53/136/53 15/97/15
f 17/36/17 18/40/18 6/46/6 5/43/5 1/33/1
f 17/36/17 50/34/50 49/35/49 18/40/18
f 18/102/18 49/108/49 48/103/48 19/99/19
f 19/8/19 48/13/48 47/14/47 20/12/20
f 20/12/20 26/26/26 24/41/24 4/37/4 2/11/2
f 20/12/20 47/14/47 46/24/46 26/26/26
f 21/7/21 39/10/39 38/19/38 25/21/25
f 22/5/22 40/9/40 39/10/39 21/7/21
f 23/77/23 41/53/41 40/71/40 22/78/22
f 24/41/24 23/42/23 12/52/12 11/49/11 4/37/4
f 24/41/24 42/38/42 41/39/41 23/42/23
f 25/21/25 44/23/44 50/34/50 17/36/17
f 26/26/26 36/28/36 42/38/42 24/41/24
f 27/131/27 35/115/35 37/118/37 28/134/28
f 28/65/28 29/82/29 30/83/30 27/66/27
f 28/75/28 38/62/38 39/88/39 29/87/29
f 29/117/29 40/130/40 41/128/41 30/111/30
f 30/74/30 42/61/42 36/91/36 27/84/27
f 31/113/31 43/132/43 45/133/45 32/114/32
f 32/82/32 33/65/33 34/64/34 31/81/31
f 32/76/32 46/68/46 47/90/47 33/86/33
f 33/129/33 48/110/48 49/116/49 34/127/34
f 34/73/34 50/63/50 44/89/44 31/85/31
f 36/121/36 35/115/35 27/131/27
f 37/48/37 35/47/35 45/45/45 43/44/43
f 37/118/37 38/122/38 28/134/28
f 38/19/38 37/20/37 43/22/43 44/23/44 25/21/25
f 39/126/39 40/130/40 29/117/29
f 41/128/41 42/123/42 30/111/30
f 44/124/44 43/132/43 31/113/31
f 45/133/45 46/125/46 32/114/32
f 46/24/46 45/25/45 35/27/35 36/28/36 26/26/26
f 47/120/47 48/110/48 33/129/33
f 49/116/49 50/119/50 34/127/34
f 52/101/52 53/96/53 54/95/54 51/100/51
